<?xml version="1.0" encoding="utf-8"?>
<!-- Generator: Adobe Illustrator 23.0.1, SVG Export Plug-In . SVG Version: 6.00 Build 0)  -->
<svg version="1.1" id="Ebene_1" xmlns="http://www.w3.org/2000/svg" xmlns:xlink="http://www.w3.org/1999/xlink" x="0px" y="0px"
	 viewBox="0 0 80 80" style="enable-background:new 0 0 80 80;" xml:space="preserve">
<style type="text/css">
	.st0{clip-path:url(#SVGID_2_);fill:none;stroke:#1086AB;}
</style>
<g>
	<defs>
		<rect id="SVGID_1_" x="25" y="15.43" width="30.32" height="47.57"/>
	</defs>
	<clipPath id="SVGID_2_">
		<use xlink:href="#SVGID_1_"  style="overflow:visible;"/>
	</clipPath>
	<path class="st0" d="M40.16,22.31c4.56,0,8.27,3.7,8.27,8.26c0,4.56-3.7,8.26-8.27,8.26c-4.57,0-8.27-3.7-8.27-8.26
		C31.89,26.01,35.6,22.31,40.16,22.31z M38.68,61.23c0.82,1.69,2.15,1.69,2.96,0c3.5-7.26,12.04-24.96,12.3-25.7l0.04-0.12
		c0.53-1.52,0.84-3.14,0.84-4.84c0-8.09-6.56-14.65-14.66-14.65c-8.1,0-14.66,6.56-14.66,14.65c0,1.2,0.16,2.35,0.43,3.47l0.01,0.06
		C26.32,35.61,35.11,53.86,38.68,61.23z"/>
</g>
</svg>
