<?xml version="1.0" encoding="utf-8"?>
<!-- Generator: Adobe Illustrator 23.0.1, SVG Export Plug-In . SVG Version: 6.00 Build 0)  -->
<svg version="1.1" id="Ebene_1" xmlns="http://www.w3.org/2000/svg" xmlns:xlink="http://www.w3.org/1999/xlink" x="0px" y="0px"
	 viewBox="0 0 158.26 38.74" style="enable-background:new 0 0 158.26 38.74;" xml:space="preserve">
<style type="text/css">
	.st0{fill:url(#SVGID_1_);}
	.st1{fill:#222221;}
	.st2{fill:#4D4D4C;}
	.st3{fill:url(#SVGID_2_);}
	.st4{fill:url(#SVGID_3_);}
</style>
<g>
	<g>
		<linearGradient id="SVGID_1_" gradientUnits="userSpaceOnUse" x1="72.3289" y1="34.9712" x2="66.2766" y2="24.4883">
			<stop  offset="0" style="stop-color:#F2F2F2"/>
			<stop  offset="0.1747" style="stop-color:#DBDBDB"/>
			<stop  offset="0.5424" style="stop-color:#9F9F9F"/>
			<stop  offset="1" style="stop-color:#4D4D4C"/>
		</linearGradient>
		<path class="st0" d="M68.62,26.4c-4.96,3.12-10.79,5.42-17.16,6.64c3.38,0.65,6.91,0.99,10.54,0.99c3.22,0,6.36-0.27,9.39-0.79
			c5.73-1.64,11.02-3.97,15.75-6.85H68.62z"/>
		<g>
			<path class="st1" d="M27.86,12.24h8.29v1.55h-3.25v8.69H31.1v-8.69h-3.24V12.24z"/>
			<path class="st1" d="M37.34,12.24h1.79v10.23h-1.79V12.24z"/>
			<path class="st1" d="M41.33,12.24h7.37v1.55h-5.58v2.68h5.16v1.46h-5.16v3h5.68v1.55h-7.47V12.24z"/>
			<path class="st1" d="M50.36,12.24h7.07v1.55h-5.27v2.68h4.63v1.46h-4.63v4.54h-1.79V12.24z"/>
			<path class="st1" d="M58.86,12.24h4.97c1.83,0,3.04,0.83,3.04,2.54c0,1.03-0.53,1.78-1.46,2.18v0.03
				c1.25,0.27,1.92,1.25,1.92,2.64c0,1.61-1.12,2.85-3.77,2.85h-4.7V12.24z M60.65,16.53h2.92c0.86,0,1.5-0.5,1.5-1.42
				c0-1.03-0.53-1.4-1.5-1.4h-2.92V16.53z M60.65,21.02h3.17c1.09,0,1.72-0.59,1.72-1.62c0-1-0.63-1.58-1.72-1.58h-3.17V21.02z"/>
			<path class="st1" d="M71.69,12.24h1.91l3.94,10.23h-1.92l-0.96-2.71h-4.09l-0.96,2.71h-1.85L71.69,12.24z M71.06,18.41h3.13
				l-1.53-4.4h-0.04L71.06,18.41z"/>
			<path class="st1" d="M78.41,12.24h1.79v5.96c0,1.38,0.09,2.97,2.41,2.97c2.32,0,2.41-1.59,2.41-2.97v-5.96h1.79v6.55
				c0,2.62-1.68,3.93-4.2,3.93c-2.52,0-4.2-1.3-4.2-3.93V12.24z"/>
			<path class="st1" d="M88.69,12.24h4.1c2.44,0,3.23,1.33,3.23,2.65c0,1.1-0.8,2.04-1.99,2.18l0.03,0.03
				c0.27-0.04,2.31,0.44,2.31,2.51c0,1.86-1.43,2.87-3.57,2.87h-4.1V12.24z M89.32,16.89h3.47c1.71,0,2.59-0.86,2.59-2.11
				c0-1.48-1.23-1.99-2.59-1.99h-3.47V16.89z M89.32,21.94h3.47c1.8,0,2.94-0.8,2.94-2.32c0-1.75-1.59-2.18-2.94-2.18h-3.47V21.94z"
				/>
			<path class="st1" d="M104.67,21.94v0.54h-6.95V12.24h6.88v0.55h-6.25v4.1h5.88v0.55h-5.88v4.5H104.67z"/>
			<path class="st1" d="M105.75,12.24h4.27c1.79,0,3.24,0.66,3.24,2.64c0,1.38-0.83,2.39-2.19,2.62v0.03
				c1.52,0.17,1.89,1.13,1.99,2.19c0.1,1.06-0.07,2.21,0.34,2.75h-0.7c-0.38-0.7-0.16-1.88-0.27-2.87
				c-0.13-0.99-0.62-1.79-2.41-1.79h-3.64v4.66h-0.63V12.24z M110.02,17.28c1.49,0,2.61-0.7,2.61-2.35c0-1.55-1.23-2.14-2.61-2.14
				h-3.64v4.49H110.02z"/>
			<path class="st1" d="M118.51,12.24l4.04,10.23h-0.67l-1.29-3.28h-4.9l-1.3,3.28h-0.67l4.12-10.23H118.51z M120.39,18.65
				l-2.19-5.79h-0.03l-2.28,5.79H120.39z"/>
			<path class="st1" d="M121.47,12.79v-0.55h7.84v0.55h-3.61v9.69h-0.63v-9.69H121.47z"/>
			<path class="st1" d="M130.64,12.24v6.14c0,1.23,0.26,3.8,3.21,3.8c2.51,0,3.36-1.48,3.36-3.8v-6.14h0.63v6.14
				c0,2.44-0.92,4.34-3.99,4.34c-3.64,0-3.84-2.98-3.84-4.34v-6.14H130.64z"/>
			<path class="st1" d="M139.65,12.24h0.79l6.46,9.39h0.03v-9.39h0.63v10.23h-0.75l-6.51-9.46h-0.03v9.46h-0.63V12.24z"/>
			<path class="st1" d="M158.26,17.46v5.02h-0.55V20.3h-0.03c-0.5,1.49-2.06,2.42-3.87,2.42c-3.1,0-4.82-2.37-4.82-5.3
				c0-2.9,1.75-5.42,4.83-5.42c2.11,0,3.9,1.28,4.26,3.41h-0.6c-0.47-1.76-1.78-2.87-3.64-2.87c-2.77,0-4.21,2.32-4.21,4.87
				c0,2.61,1.41,4.76,4.21,4.76c2.44,0,3.97-1.66,3.87-4.17h-3.77v-0.54H158.26z"/>
		</g>
		<g>
			<path class="st2" d="M28.32,0h2.62c2.86,0,3.7,1.96,3.7,3.99c0,2.27-1.15,4.01-3.72,4.01h-2.6V0z M28.81,7.58h2.15
				c1.49,0,3.19-0.82,3.19-3.59c0-3.27-2.1-3.57-3.29-3.57h-2.05V7.58z"/>
			<path class="st2" d="M35.89,5.18c-0.02,1.36,0.7,2.59,2.12,2.59c1.09,0,1.86-0.65,2.06-1.72h0.43c-0.22,1.35-1.12,2.09-2.49,2.09
				c-1.68,0-2.57-1.32-2.55-2.91c-0.02-1.58,0.81-3.12,2.55-3.12c1.81,0,2.61,1.42,2.53,3.07H35.89z M40.11,4.81
				c-0.02-1.21-0.78-2.33-2.11-2.33c-1.28,0-2.03,1.19-2.12,2.33H40.11z"/>
			<path class="st2" d="M46.1,8.01h-0.43V6.77h-0.02c-0.29,0.86-1.17,1.37-2.06,1.37c-2.03,0-2.05-1.63-2.05-2.33V2.24h0.43v3.64
				c0,0.59,0.07,1.88,1.64,1.88c1.29,0,2.07-1,2.07-2.41V2.24h0.43V8.01z"/>
			<path class="st2" d="M49.47,2.61h-1.25v4.03c0,0.93,0.44,1.02,1.24,1v0.37c-0.88,0.06-1.72-0.07-1.67-1.37V2.61h-1.06V2.24h1.06
				V0.45h0.43v1.79h1.25V2.61z"/>
			<path class="st2" d="M50.46,6.09c0.07,1.07,0.86,1.68,1.91,1.68c0.75,0,1.83-0.22,1.83-1.22c0-0.97-0.99-1.12-1.97-1.32
				c-1-0.2-1.98-0.46-1.98-1.64c0-1.14,1.11-1.48,2.08-1.48c1.22,0,2.13,0.53,2.13,1.84h-0.43c-0.01-1.04-0.74-1.47-1.71-1.47
				c-0.79,0-1.66,0.29-1.66,1.11c0,0.92,0.99,1.07,1.92,1.27c1.14,0.21,2.04,0.48,2.04,1.69c0,1.25-1.24,1.59-2.25,1.59
				c-1.31,0-2.3-0.71-2.33-2.05H50.46z"/>
			<path class="st2" d="M59.99,4.03c-0.08-1.02-0.91-1.55-1.95-1.55c-1.45,0-2.22,1.28-2.22,2.59c0,1.56,0.73,2.7,2.22,2.7
				c1.08,0,1.86-0.74,2.01-1.8h0.43c-0.19,1.38-1.19,2.16-2.43,2.16c-1.87,0-2.65-1.47-2.65-3.07c0-1.6,0.94-2.96,2.65-2.96
				c1.25,0,2.25,0.61,2.38,1.92H59.99z"/>
			<path class="st2" d="M61.89,0v3.48h0.02c0.29-0.86,1.17-1.37,2.06-1.37c2.03,0,2.05,1.63,2.05,2.33v3.56h-0.43V4.36
				c0-0.59-0.07-1.88-1.64-1.88c-1.29,0-2.07,1-2.07,2.41v3.12h-0.43V0H61.89z"/>
			<path class="st2" d="M67.45,5.18c-0.02,1.36,0.69,2.59,2.12,2.59c1.09,0,1.86-0.65,2.06-1.72h0.43
				c-0.23,1.35-1.12,2.09-2.49,2.09c-1.68,0-2.57-1.32-2.55-2.91c-0.02-1.58,0.81-3.12,2.55-3.12c1.8,0,2.61,1.42,2.53,3.07H67.45z
				 M71.68,4.81c-0.02-1.21-0.79-2.33-2.11-2.33c-1.28,0-2.03,1.19-2.12,2.33H71.68z"/>
		</g>

			<linearGradient id="SVGID_2_" gradientUnits="userSpaceOnUse" x1="-302.3731" y1="-266.4476" x2="-310.4581" y2="-280.4511" gradientTransform="matrix(-1 0 0 -1 -210.3095 -269.6044)">
			<stop  offset="0" style="stop-color:#4D4D4C"/>
			<stop  offset="0.1669" style="stop-color:#797979"/>
			<stop  offset="0.3547" style="stop-color:#A4A4A4"/>
			<stop  offset="0.5369" style="stop-color:#C6C6C6"/>
			<stop  offset="0.7093" style="stop-color:#DFDFDF"/>
			<stop  offset="0.868" style="stop-color:#EDEDED"/>
			<stop  offset="1" style="stop-color:#F2F2F2"/>
		</linearGradient>
		<path class="st3" d="M104.74,8.19c1.63-2.6,3.01-5.33,4.11-8.16l-22.31,0c-0.73,2.92-1.7,5.64-2.88,8.16H104.74z"/>
	</g>
	<linearGradient id="SVGID_3_" gradientUnits="userSpaceOnUse" x1="36.1094" y1="38.7437" x2="36.1094" y2="17.6685">
		<stop  offset="0" style="stop-color:#4085A6"/>
		<stop  offset="1" style="stop-color:#A9C8D7"/>
	</linearGradient>
	<path class="st4" d="M58.6,35.81c-15.95,0-30.48-7.76-38.82-18.14H0c11.66,11.97,30.89,21.08,50.14,21.08
		c7.81,0,15.26-1.62,22.08-4C68.69,35.44,62.4,35.81,58.6,35.81z"/>
</g>
</svg>
